# xmcd CD database file
#
# Track frame offsets:
#	150
#	11474
#	22546
#	35268
#	46179
#	57011
#	69199
#	81196
#	92104
#	104888
#	115866
#	128701
#	143438
#	157391
#	169678
#	183079
#	196887
#	208178
#	221118
#	233545
#
# Disc length: 3302 seconds
#
# Revision: 0
# Processed by: cddbd v1.5.2PL0 Copyright (c) Steve Scherf et al.
# Submitted via: CDex 1.51
#
DISCID=030ce414
DTITLE=Louis Blanchette - Louis Blanchette Et Son Harmonica
DYEAR=1900
DGENRE=Country
TTITLE0=Reel De L'Argenteuil
TTITLE1=Reel Des Fiançailles
TTITLE2=Reel De Maurice
TTITLE3=Reel Des Jeunes Mariés
TTITLE4=Reel Bagot
TTITLE5=Reel Des Noces D'Or
TTITLE6=Reel De La Session
TTITLE7=Reel De La Bastrigue
TTITLE8=Reel D'Or
TTITLE9=Reel De Windsor Mills
TTITLE10=Reel D'Union
TTITLE11=Reel Des Trois Rivières
TTITLE12=Reel De Cap Rouge
TTITLE13=Reel Des Noces D'Argent
TTITLE14=Reel Como
TTITLE15=Reel Des Noces De Diamants
TTITLE16=Reel De Campbelton
TTITLE17=Reel D'Amos
TTITLE18=Reel Yanke Doodle
TTITLE19=Reel Blanchette
EXTD=
EXTT0=
EXTT1=
EXTT2=
EXTT3=
EXTT4=
EXTT5=
EXTT6=
EXTT7=
EXTT8=
EXTT9=
EXTT10=
EXTT11=
EXTT12=
EXTT13=
EXTT14=
EXTT15=
EXTT16=
EXTT17=
EXTT18=
EXTT19=
PLAYORDER=
